<svg width="100" height="104" viewBox="0 0 100 104" fill="none" xmlns="http://www.w3.org/2000/svg">
<path d="M16.6666 30.3335C16.6666 23.3328 16.6666 19.8325 18.029 17.1586C19.2275 14.8066 21.1397 12.8943 23.4917 11.6959C26.1656 10.3335 29.666 10.3335 36.6666 10.3335H63.3333C70.334 10.3335 73.8343 10.3335 76.5082 11.6959C78.8602 12.8943 80.7725 14.8066 81.9709 17.1586C83.3333 19.8325 83.3333 23.3328 83.3333 30.3335V73.6668C83.3333 80.6675 83.3333 84.1678 81.9709 86.8417C80.7725 89.1937 78.8602 91.106 76.5082 92.3044C73.8343 93.6668 70.334 93.6668 63.3333 93.6668H36.6666C29.666 93.6668 26.1656 93.6668 23.4917 92.3044C21.1397 91.106 19.2275 89.1937 18.029 86.8417C16.6666 84.1678 16.6666 80.6675 16.6666 73.6668V30.3335Z" stroke="black" stroke-width="5" stroke-linecap="round" stroke-linejoin="round"/>
<path d="M43.4536 3.442L23.7869 10.8548C19.5026 12.4697 16.6666 16.5694 16.6666 21.1479V82.8524C16.6666 87.4309 19.5026 91.5307 23.7869 93.1455L43.4536 100.558C50.6477 103.27 58.3333 97.9534 58.3333 90.2652V13.7351C58.3333 6.04696 50.6477 0.730391 43.4536 3.442Z" fill="white" stroke="black" stroke-width="5"/>
<circle cx="43.75" cy="49.9165" r="6.25" fill="black"/>
</svg>
