<svg width="100" height="100" viewBox="0 0 100 100" fill="none" xmlns="http://www.w3.org/2000/svg">
<circle cx="65.25" cy="50.25" r="6.25" fill="green"/>
<path d="M16.6666 28.3333C16.6666 21.3326 16.6666 17.8323 18.029 15.1584C19.2275 12.8063 21.1397 10.8941 23.4917 9.69567C26.1656 8.33325 29.666 8.33325 36.6666 8.33325H63.3333C70.334 8.33325 73.8343 8.33325 76.5082 9.69567C78.8602 10.8941 80.7725 12.8063 81.9709 15.1584C83.3333 17.8323 83.3333 21.3326 83.3333 28.3333V71.6666C83.3333 78.6672 83.3333 82.1676 81.9709 84.8415C80.7725 87.1935 78.8602 89.1058 76.5082 90.3042C73.8343 91.6666 70.334 91.6666 63.3333 91.6666H36.6666C29.666 91.6666 26.1656 91.6666 23.4917 90.3042C21.1397 89.1058 19.2275 87.1935 18.029 84.8415C16.6666 82.1676 16.6666 78.6672 16.6666 71.6666V28.3333Z" stroke="green" stroke-width="5" stroke-linecap="round" stroke-linejoin="round"/>
</svg>
